<svg version="1.2" xmlns="http://www.w3.org/2000/svg" viewBox="0 0 140 140" width="140" height="140">
	<title>logo-svg</title>
	<defs>
		<linearGradient id="g1" x2="1" gradientUnits="userSpaceOnUse" gradientTransform="matrix(72,0,0,13,34,63.5)">
			<stop offset="0" stop-color="#ff00ac"/>
			<stop offset="1" stop-color="#ffa300"/>
		</linearGradient>
	</defs>
	<style>
		tspan { white-space:pre } 
		.s0 { fill: #f50060 } 
		.s1 { fill: #ffffff } 
		.t2 { font-size: 86px;fill: #ffffff;font-weight: 400;font-family: "IBMPlexSansDevanagari-Regular", "IBM Plex Sans Devanagari" } 
		.s3 { fill: url(#g1) } 
	</style>
	<path id="Shape 1" class="s0" d="m70 140c-38.7 0-70-31.3-70-70 0-38.7 31.3-70 70-70 38.7 0 70 31.3 70 70 0 38.7-31.3 70-70 70z"/>
	<path id="" class="s1" d="m38 43h65l3 2v5h-72v-5z"/>
	<text id="*" style="transform: matrix(.273,0,0,.273,37.182,101.394)" >
		<tspan x="0" y="0" class="t2">*
</tspan>
	</text>
	<path id="Shape 2" class="s1" d="m44 99"/>
	<path id=" copy 2" class="s1" d="m52 85l54.8-21.1 4.7 12.1-67 26.4-1.5-3.4 12.5-5z"/>
	<path id=" copy" class="s3" d="m34 57h68l4 3-13.2 4.4-13.8 5.6h-41l-4-3z"/>
</svg>